<svg width="47" height="53" viewBox="0 0 47 53" fill="none" xmlns="http://www.w3.org/2000/svg">
<path fill-rule="evenodd" clip-rule="evenodd" d="M44.7987 29.1221V46.4172C44.7987 49.5106 42.3744 52.0456 39.4106 52.0456H7.31763C4.35382 52.0456 1.92953 49.5106 1.92953 46.4172V29.1221H18.5956V36.6329L23.3641 39.7663L28.1326 36.6329V29.1221H44.7987Z" fill="url(#paint0_linear_95826_3652)"/>
<path fill-rule="evenodd" clip-rule="evenodd" d="M20.2659 29.1221V35.7306L23.364 37.7661L26.4621 35.7306V29.1221H20.2659Z" fill="url(#paint1_linear_95826_3652)"/>
<path fill-rule="evenodd" clip-rule="evenodd" d="M3.42086 9.18826H43.3073C45.1898 9.18826 46.7282 10.8963 46.7282 12.9837V23.2369C46.7282 25.3243 45.1898 27.0323 43.3073 27.0323H3.42086C1.53844 27.0323 0 25.3243 0 23.2369V12.9837C0 10.8963 1.53844 9.18826 3.42086 9.18826Z" fill="url(#paint2_linear_95826_3652)"/>
<path fill-rule="evenodd" clip-rule="evenodd" d="M15.0593 0H31.6689C33.212 0 34.4748 1.2628 34.4748 2.80595V7.18334H30.9173V4.59649C30.9173 3.89912 30.3472 3.32662 29.6498 3.32662H17.0784C16.381 3.32662 15.8109 3.89912 15.8109 4.59649V7.18334H12.2534V2.80595C12.2534 1.2628 13.5162 0 15.0593 0Z" fill="url(#paint3_linear_95826_3652)"/>
<defs>
<linearGradient id="paint0_linear_95826_3652" x1="23.3641" y1="0" x2="23.3641" y2="52.0456" gradientUnits="userSpaceOnUse">
<stop stop-color="#EF8080"/>
<stop offset="1" stop-color="#F0145A"/>
</linearGradient>
<linearGradient id="paint1_linear_95826_3652" x1="23.3641" y1="0" x2="23.3641" y2="52.0456" gradientUnits="userSpaceOnUse">
<stop stop-color="#EF8080"/>
<stop offset="1" stop-color="#F0145A"/>
</linearGradient>
<linearGradient id="paint2_linear_95826_3652" x1="23.3641" y1="0" x2="23.3641" y2="52.0456" gradientUnits="userSpaceOnUse">
<stop stop-color="#EF8080"/>
<stop offset="1" stop-color="#F0145A"/>
</linearGradient>
<linearGradient id="paint3_linear_95826_3652" x1="23.3641" y1="0" x2="23.3641" y2="52.0456" gradientUnits="userSpaceOnUse">
<stop stop-color="#EF8080"/>
<stop offset="1" stop-color="#F0145A"/>
</linearGradient>
</defs>
</svg>
