<svg width="45" height="60" viewBox="0 0 45 60" fill="none" xmlns="http://www.w3.org/2000/svg">
<path d="M31.3865 33.2859C33.7386 33.2859 36.0644 33.8742 38.1124 34.9872C38.4844 35.1877 38.8257 35.4266 39.1742 35.6565C42.5354 29.0767 44.3093 22.1176 44.3093 15.3287C44.3093 14.9471 44.3093 14.5533 44.2971 14.1595C44.2724 13.6056 43.8786 13.1256 43.3247 13.0026C35.8909 11.3779 29.1586 7.35329 23.8663 1.37177L23.0786 0.473259C22.8447 0.202526 22.5125 0.0548393 22.1555 0.0548393C21.774 0.0056355 21.4786 0.190206 21.2447 0.448694L20.0386 1.77795C15.017 7.30409 8.69087 11.1194 1.74939 12.8179L0.949361 13.0148C0.40782 13.1379 0.0262844 13.6179 0.0139647 14.1717C-0.429095 31.4763 9.78627 43.9195 14.1924 48.4733C15.3854 49.6981 16.7154 50.9155 17.9801 51.9217C17.5057 50.491 17.2326 48.9855 17.2326 47.4398C17.2326 39.6351 23.5818 33.2859 31.3865 33.2859Z" fill="url(#paint0_linear_95826_3671)"/>
<path d="M36.9369 37.1502C35.2385 36.2271 33.3185 35.7471 31.3862 35.7471C24.9369 35.7471 19.6938 40.9902 19.6938 47.4394C19.6938 49.6179 20.2847 51.7471 21.417 53.5686C23.5708 57.0517 27.2877 59.1317 31.3862 59.1317C37.8231 59.1317 43.0785 53.8887 43.0785 47.4394C43.0785 43.1317 40.7277 39.1933 36.9369 37.1502ZM37.3744 45.8826L28.2295 52.9992L25.1075 48.1158C24.7409 47.5431 24.9086 46.7823 25.4813 46.4163C26.0547 46.0497 26.8161 46.2186 27.1809 46.7901L28.8485 49.3983L35.8623 43.9403C36.3978 43.5227 37.1718 43.6182 37.5895 44.1555C38.0072 44.6921 37.9104 45.4656 37.3744 45.8826Z" fill="url(#paint1_linear_95826_3671)"/>
<defs>
<linearGradient id="paint0_linear_95826_3671" x1="22.1547" y1="0.046875" x2="22.1547" y2="59.1317" gradientUnits="userSpaceOnUse">
<stop stop-color="#EF8080"/>
<stop offset="1" stop-color="#F0145A"/>
</linearGradient>
<linearGradient id="paint1_linear_95826_3671" x1="22.1547" y1="0.046875" x2="22.1547" y2="59.1317" gradientUnits="userSpaceOnUse">
<stop stop-color="#EF8080"/>
<stop offset="1" stop-color="#F0145A"/>
</linearGradient>
</defs>
</svg>
