<svg width="61" height="60" viewBox="0 0 61 60" fill="none" xmlns="http://www.w3.org/2000/svg">
<path d="M40.2681 53.7251H21.2681V59.7251H40.2681V53.7251Z" fill="black"/>
<path d="M40.2681 53.7251H21.2681V59.7251H40.2681V53.7251Z" fill="url(#paint0_linear_95826_3667)"/>
<path d="M13.435 0.177359L0 13.6124L3.53554 17.1479L16.9706 3.7129L13.435 0.177359Z" fill="black"/>
<path d="M13.435 0.177359L0 13.6124L3.53554 17.1479L16.9706 3.7129L13.435 0.177359Z" fill="url(#paint1_linear_95826_3667)"/>
<path d="M47.3751 0.046875L43.8395 3.5824L57.2746 17.0175L60.8101 13.4819L47.3751 0.046875Z" fill="black"/>
<path d="M47.3751 0.046875L43.8395 3.5824L57.2746 17.0175L60.8101 13.4819L47.3751 0.046875Z" fill="url(#paint2_linear_95826_3667)"/>
<path d="M42.8187 7.4317L40.1274 7.31763C39.3513 7.20809 38.5605 7.2804 37.8172 7.52885C37.0738 7.7773 36.3984 8.1951 35.8442 8.74927L30.3398 14.2537L24.5862 8.50019C24.0867 8.01212 23.4635 7.66955 22.7837 7.50939C22.1039 7.34923 21.3933 7.37753 20.7284 7.59125C20.1012 7.78201 19.4339 7.79874 18.7978 7.63967C18.1618 7.48059 17.581 7.15169 17.1174 6.6881L16.2635 5.83422L5.65686 16.4408L7.38486 18.1688L7.27078 20.86C7.16124 21.6361 7.23354 22.427 7.48199 23.1703C7.73043 23.9136 8.14822 24.589 8.70239 25.1432L18.3148 34.7556C18.4433 33.4938 19.0479 32.3284 20.0055 31.4967L17.0106 28.5018L17.7176 27.7947L20.8459 30.9229C21.2893 30.6705 21.7691 30.4881 22.2682 30.3823V26.6884L20.5461 24.9662L21.2532 24.2591L22.2682 25.2742V19.9243C22.2571 19.04 22.5709 18.1824 23.1502 17.5142C23.7295 16.846 24.5339 16.4137 25.4108 16.2993C25.7415 16.2672 26.0751 16.2823 26.4016 16.3441L25.1721 15.1146L25.8793 14.4075L27.6754 16.2037C27.9935 15.5873 28.4856 15.0779 29.0907 14.7387C29.6957 14.3995 30.387 14.2453 31.0788 14.2954C31.9137 14.3929 32.6881 14.7794 33.268 15.388C33.8478 15.9966 34.1965 16.7888 34.2536 17.6274C34.8219 17.3573 35.4517 17.2427 36.0788 17.2954C36.9699 17.4021 37.7896 17.8359 38.3789 18.5128C38.9682 19.1896 39.2852 20.0612 39.2682 20.9585V24.3823C40.1783 24.5724 41.0174 25.0123 41.6915 25.6526C42.3655 26.2929 42.8478 27.1084 43.0843 28.0075L45.8728 25.219L46.5799 25.9261L43.2646 29.2414C43.2648 29.2551 43.2682 29.268 43.2682 29.2817V32.6018C44.1667 32.5078 45.006 32.1096 45.6472 31.4733L52.4873 24.6332C52.9754 24.1336 53.3179 23.5104 53.4781 22.8306C53.6383 22.1508 53.6099 21.4402 53.3962 20.7753C53.2054 20.1481 53.1887 19.4808 53.3478 18.8447C53.5069 18.2087 53.8358 17.6278 54.2994 17.1642L55.1533 16.3104L44.5467 5.70374L42.8187 7.4317Z" fill="black"/>
<path d="M42.8187 7.4317L40.1274 7.31763C39.3513 7.20809 38.5605 7.2804 37.8172 7.52885C37.0738 7.7773 36.3984 8.1951 35.8442 8.74927L30.3398 14.2537L24.5862 8.50019C24.0867 8.01212 23.4635 7.66955 22.7837 7.50939C22.1039 7.34923 21.3933 7.37753 20.7284 7.59125C20.1012 7.78201 19.4339 7.79874 18.7978 7.63967C18.1618 7.48059 17.581 7.15169 17.1174 6.6881L16.2635 5.83422L5.65686 16.4408L7.38486 18.1688L7.27078 20.86C7.16124 21.6361 7.23354 22.427 7.48199 23.1703C7.73043 23.9136 8.14822 24.589 8.70239 25.1432L18.3148 34.7556C18.4433 33.4938 19.0479 32.3284 20.0055 31.4967L17.0106 28.5018L17.7176 27.7947L20.8459 30.9229C21.2893 30.6705 21.7691 30.4881 22.2682 30.3823V26.6884L20.5461 24.9662L21.2532 24.2591L22.2682 25.2742V19.9243C22.2571 19.04 22.5709 18.1824 23.1502 17.5142C23.7295 16.846 24.5339 16.4137 25.4108 16.2993C25.7415 16.2672 26.0751 16.2823 26.4016 16.3441L25.1721 15.1146L25.8793 14.4075L27.6754 16.2037C27.9935 15.5873 28.4856 15.0779 29.0907 14.7387C29.6957 14.3995 30.387 14.2453 31.0788 14.2954C31.9137 14.3929 32.6881 14.7794 33.268 15.388C33.8478 15.9966 34.1965 16.7888 34.2536 17.6274C34.8219 17.3573 35.4517 17.2427 36.0788 17.2954C36.9699 17.4021 37.7896 17.8359 38.3789 18.5128C38.9682 19.1896 39.2852 20.0612 39.2682 20.9585V24.3823C40.1783 24.5724 41.0174 25.0123 41.6915 25.6526C42.3655 26.2929 42.8478 27.1084 43.0843 28.0075L45.8728 25.219L46.5799 25.9261L43.2646 29.2414C43.2648 29.2551 43.2682 29.268 43.2682 29.2817V32.6018C44.1667 32.5078 45.006 32.1096 45.6472 31.4733L52.4873 24.6332C52.9754 24.1336 53.3179 23.5104 53.4781 22.8306C53.6383 22.1508 53.6099 21.4402 53.3962 20.7753C53.2054 20.1481 53.1887 19.4808 53.3478 18.8447C53.5069 18.2087 53.8358 17.6278 54.2994 17.1642L55.1533 16.3104L44.5467 5.70374L42.8187 7.4317Z" fill="url(#paint3_linear_95826_3667)"/>
<path d="M28.1428 19.4146C28.0668 18.765 27.7384 18.1713 27.2283 17.7618C26.7183 17.3523 26.0677 17.1598 25.417 17.226C24.7858 17.313 24.2086 17.6291 23.7952 18.1139C23.3818 18.5987 23.161 19.2186 23.1747 19.8556V31.2129C22.1139 31.2129 21.0965 31.6344 20.3463 32.3845C19.5962 33.1347 19.1747 34.1521 19.1747 35.213V44.8864C19.1829 45.5848 19.3813 46.2677 19.7487 46.8616C20.1162 47.4555 20.6387 47.938 21.2599 48.257C21.8384 48.5657 22.3221 49.0257 22.6593 49.5879C22.9966 50.1501 23.1747 50.7934 23.1747 51.449V52.6566H38.1747V50.2129L40.1584 48.3906C40.7846 47.9193 41.2927 47.3089 41.6427 46.6076C41.9926 45.9063 42.1747 45.1333 42.1747 44.3496V29.2129C42.1747 28.1521 41.7533 27.1347 41.0032 26.3845C40.253 25.6344 39.2356 25.2129 38.1747 25.2129V20.8904C38.1917 20.2431 37.9686 19.6125 37.5484 19.12C37.1281 18.6275 36.5405 18.3079 35.8986 18.2228C35.2687 18.1671 34.6411 18.353 34.1431 18.7428C33.645 19.1325 33.3137 19.697 33.2163 20.3218H33.6747V35.7652H32.6747V20.3218H33.1747V17.8904C33.1917 17.2431 32.9686 16.6125 32.5484 16.12C32.1281 15.6275 31.5405 15.3079 30.8986 15.2228C30.5528 15.1917 30.2044 15.2331 29.8754 15.3441C29.5465 15.4551 29.2443 15.6335 28.988 15.8677C28.7318 16.102 28.5271 16.387 28.3871 16.7047C28.2471 17.0224 28.1748 17.3658 28.1747 17.7129V19.4146H28.6747V34.858H27.6747V19.4146H28.1428ZM23.5739 39.7652H22.5739V31.7652H23.5739V39.7652ZM37.6747 25.5234H38.6747V35.9668H37.6747V25.5234Z" fill="black"/>
<path d="M28.1428 19.4146C28.0668 18.765 27.7384 18.1713 27.2283 17.7618C26.7183 17.3523 26.0677 17.1598 25.417 17.226C24.7858 17.313 24.2086 17.6291 23.7952 18.1139C23.3818 18.5987 23.161 19.2186 23.1747 19.8556V31.2129C22.1139 31.2129 21.0965 31.6344 20.3463 32.3845C19.5962 33.1347 19.1747 34.1521 19.1747 35.213V44.8864C19.1829 45.5848 19.3813 46.2677 19.7487 46.8616C20.1162 47.4555 20.6387 47.938 21.2599 48.257C21.8384 48.5657 22.3221 49.0257 22.6593 49.5879C22.9966 50.1501 23.1747 50.7934 23.1747 51.449V52.6566H38.1747V50.2129L40.1584 48.3906C40.7846 47.9193 41.2927 47.3089 41.6427 46.6076C41.9926 45.9063 42.1747 45.1333 42.1747 44.3496V29.2129C42.1747 28.1521 41.7533 27.1347 41.0032 26.3845C40.253 25.6344 39.2356 25.2129 38.1747 25.2129V20.8904C38.1917 20.2431 37.9686 19.6125 37.5484 19.12C37.1281 18.6275 36.5405 18.3079 35.8986 18.2228C35.2687 18.1671 34.6411 18.353 34.1431 18.7428C33.645 19.1325 33.3137 19.697 33.2163 20.3218H33.6747V35.7652H32.6747V20.3218H33.1747V17.8904C33.1917 17.2431 32.9686 16.6125 32.5484 16.12C32.1281 15.6275 31.5405 15.3079 30.8986 15.2228C30.5528 15.1917 30.2044 15.2331 29.8754 15.3441C29.5465 15.4551 29.2443 15.6335 28.988 15.8677C28.7318 16.102 28.5271 16.387 28.3871 16.7047C28.2471 17.0224 28.1748 17.3658 28.1747 17.7129V19.4146H28.6747V34.858H27.6747V19.4146H28.1428ZM23.5739 39.7652H22.5739V31.7652H23.5739V39.7652ZM37.6747 25.5234H38.6747V35.9668H37.6747V25.5234Z" fill="url(#paint4_linear_95826_3667)"/>
<defs>
<linearGradient id="paint0_linear_95826_3667" x1="30.6747" y1="15.2148" x2="30.6747" y2="52.6587" gradientUnits="userSpaceOnUse">
<stop stop-color="#EF8080"/>
<stop offset="1" stop-color="#F0145A"/>
</linearGradient>
<linearGradient id="paint1_linear_95826_3667" x1="30.6747" y1="15.2148" x2="30.6747" y2="52.6587" gradientUnits="userSpaceOnUse">
<stop stop-color="#EF8080"/>
<stop offset="1" stop-color="#F0145A"/>
</linearGradient>
<linearGradient id="paint2_linear_95826_3667" x1="30.6747" y1="15.2148" x2="30.6747" y2="52.6587" gradientUnits="userSpaceOnUse">
<stop stop-color="#EF8080"/>
<stop offset="1" stop-color="#F0145A"/>
</linearGradient>
<linearGradient id="paint3_linear_95826_3667" x1="30.6747" y1="15.2148" x2="30.6747" y2="52.6587" gradientUnits="userSpaceOnUse">
<stop stop-color="#EF8080"/>
<stop offset="1" stop-color="#F0145A"/>
</linearGradient>
<linearGradient id="paint4_linear_95826_3667" x1="30.6747" y1="15.2148" x2="30.6747" y2="52.6587" gradientUnits="userSpaceOnUse">
<stop stop-color="#EF8080"/>
<stop offset="1" stop-color="#F0145A"/>
</linearGradient>
</defs>
</svg>
