<svg width="48" height="48" viewBox="0 0 48 48" fill="none" xmlns="http://www.w3.org/2000/svg">
<path d="M15.5239 20.125C16.6279 20.125 17.5239 19.229 17.5239 18.125V10.325C17.5239 6.838 20.3609 4 23.8479 4C27.3349 4 30.1729 6.838 30.1729 10.325V18.125C30.1729 19.229 31.0679 20.125 32.1729 20.125C33.2769 20.125 34.1729 19.229 34.1729 18.125V10.325C34.1739 4.632 29.5419 0 23.8479 0C18.1559 0 13.5239 4.632 13.5239 10.325V18.125C13.5239 19.229 14.4199 20.125 15.5239 20.125Z" fill="url(#paint0_linear_95825_3646)"/>
<path d="M46.79 15.631H36.174V18.125C36.174 20.331 34.38 22.125 32.174 22.125C29.968 22.125 28.174 20.331 28.174 18.125V15.631H19.525V18.125C19.525 20.331 17.731 22.125 15.525 22.125C13.319 22.125 11.525 20.331 11.525 18.125V15.631H0.79001C0.23801 15.631 -0.10299 16.066 0.0280096 16.602L7.02601 45.099C7.44801 46.701 9.13401 48 10.79 48H36.79C38.448 48 40.132 46.701 40.556 45.099L47.552 16.602C47.683 16.065 47.343 15.631 46.79 15.631Z" fill="url(#paint1_linear_95825_3646)"/>
<path d="M20.3901 26.4C20.3901 25.6265 21.0166 25 21.7901 25C22.5636 25 23.1901 25.6265 23.1901 26.4V33.35L23.1902 32C23.1902 31.2265 23.8167 30.6 24.5902 30.6C25.3637 30.6 25.9902 31.2265 25.9902 32V33.6764C26.0028 32.9141 26.6247 31.3 27.39 31.3C28.1632 31.3 28.79 31.9268 28.79 32.7C28.79 32.7 28.8311 33.7411 28.9232 33.8033C29.1472 33.3285 29.6303 32 30.19 32C30.9632 32 31.59 32.6268 31.59 33.4V40.4C31.59 41.9463 30.3363 43.2 28.79 43.2H24.1098C22.6244 43.2 21.1999 42.6099 20.1499 41.5599L17.94 39.35L14.7901 37.9402C14.7951 36.6033 15.8426 36.2 16.89 36.2C17.7923 36.2 18.6036 36.3407 20.39 37.25L20.3901 26.4Z" fill="white"/>
<defs>
<linearGradient id="paint0_linear_95825_3646" x1="23.79" y1="0" x2="23.79" y2="48" gradientUnits="userSpaceOnUse">
<stop stop-color="#EF8080"/>
<stop offset="1" stop-color="#F0145A"/>
</linearGradient>
<linearGradient id="paint1_linear_95825_3646" x1="23.79" y1="0" x2="23.79" y2="48" gradientUnits="userSpaceOnUse">
<stop stop-color="#EF8080"/>
<stop offset="1" stop-color="#F0145A"/>
</linearGradient>
</defs>
</svg>
